<svg width="700" height="400" xmlns="http://www.w3.org/2000/svg" xmlns:xlink="http://www.w3.org/1999/xlink" version="1.1" baseProfile="full" viewBox="0 0 700 400">
<rect width="700" height="400" x="0" y="0" fill="none"></rect>
<polyline points="419.4 78.4 426.9 65.4 456.9 65.4" fill="none" pointer-events="visible" stroke="#5070dd" class="zr4-cls-39"></polyline>
<polyline points="490 198.6 505 198.5 535 198.5" fill="none" pointer-events="visible" stroke="#b6d634" class="zr4-cls-39"></polyline>
<polyline points="420.3 321.1 427.8 334.1 457.8 334.1" fill="none" pointer-events="visible" stroke="#505372" class="zr4-cls-39"></polyline>
<polyline points="279.4 320.9 271.9 333.9 241.9 333.9" fill="none" pointer-events="visible" stroke="#ff994d" class="zr4-cls-39"></polyline>
<polyline points="210 200.3 195 200.3 165 200.3" fill="none" pointer-events="visible" stroke="#0ca8df" class="zr4-cls-39"></polyline>
<polyline points="279.6 79 272 66 242 66" fill="none" pointer-events="visible" stroke="#ffd10a" class="zr4-cls-39"></polyline>
<path d="M350 60A140 140 0 0 1 470.6 128.9L418.9 159.4A80 80 0 0 0 350 120Z" fill="#5070dd" ecmeta_series_index="0" ecmeta_data_index="0" ecmeta_ssr_type="chart" transform-origin="350px 200px" class="zr4-cls-40 zr4-cls-41"></path>
<path d="M470.6 128.9A140 140 0 0 1 472 268.7L419.7 239.3A80 80 0 0 0 418.9 159.4Z" fill="#b6d634" ecmeta_series_index="0" ecmeta_data_index="1" ecmeta_ssr_type="chart" transform-origin="350px 200px" class="zr4-cls-42 zr4-cls-43"></path>
<path d="M472 268.7A140 140 0 0 1 349.2 340L349.5 280A80 80 0 0 0 419.7 239.3Z" fill="#505372" ecmeta_series_index="0" ecmeta_data_index="2" ecmeta_ssr_type="chart" transform-origin="350px 200px" class="zr4-cls-44 zr4-cls-45"></path>
<path d="M349.2 340A140 140 0 0 1 228.5 269.6L280.6 239.8A80 80 0 0 0 349.5 280Z" fill="#ff994d" ecmeta_series_index="0" ecmeta_data_index="3" ecmeta_ssr_type="chart" transform-origin="350px 200px" class="zr4-cls-46 zr4-cls-47"></path>
<path d="M228.5 269.6A140 140 0 0 1 228.3 130.8L280.4 160.5A80 80 0 0 0 280.6 239.8Z" fill="#0ca8df" ecmeta_series_index="0" ecmeta_data_index="4" ecmeta_ssr_type="chart" transform-origin="350px 200px" class="zr4-cls-48 zr4-cls-49"></path>
<path d="M228.3 130.8A140 140 0 0 1 350 60L350 120A80 80 0 0 0 280.4 160.5Z" fill="#ffd10a" ecmeta_series_index="0" ecmeta_data_index="5" ecmeta_ssr_type="chart" transform-origin="350px 200px" class="zr4-cls-50 zr4-cls-51"></path>
<text dominant-baseline="central" text-anchor="start" style="font-size:10px;font-family:Microsoft YaHei;" transform="translate(461.8792 65.4096)" fill="#333" stroke="rgb(255,255,255)" stroke-width="2" paint-order="stroke" stroke-miterlimit="2">Shopify</text>
<text dominant-baseline="central" text-anchor="start" style="font-size:10px;font-family:Microsoft YaHei;" transform="translate(539.9925 198.4782)" fill="#333" stroke="rgb(255,255,255)" stroke-width="2" paint-order="stroke" stroke-miterlimit="2">Amazon</text>
<text dominant-baseline="central" text-anchor="start" style="font-size:10px;font-family:Microsoft YaHei;" transform="translate(462.7922 334.0648)" fill="#333" stroke="rgb(255,255,255)" stroke-width="2" paint-order="stroke" stroke-miterlimit="2">Walmart</text>
<text dominant-baseline="central" text-anchor="end" style="font-size:10px;font-family:Microsoft YaHei;" transform="translate(236.867 333.8665)" fill="#333" stroke="rgb(255,255,255)" stroke-width="2" paint-order="stroke" stroke-miterlimit="2">Temu</text>
<text dominant-baseline="central" text-anchor="end" style="font-size:10px;font-family:Microsoft YaHei;" xml:space="preserve" transform="translate(160.0002 200.2771)" fill="#333" stroke="rgb(255,255,255)" stroke-width="2" paint-order="stroke" stroke-miterlimit="2">TikTok Shop</text>
<text dominant-baseline="central" text-anchor="end" style="font-size:10px;font-family:Microsoft YaHei;" transform="translate(237.0322 66.0372)" fill="#333" stroke="rgb(255,255,255)" stroke-width="2" paint-order="stroke" stroke-miterlimit="2">eBay</text>
<path d="M-5 -5l442.3 0l0 24l-442.3 0Z" transform="translate(133.85 381)" fill="rgb(0,0,0)" fill-opacity="0" stroke="#b7b9be" stroke-width="0" class="zr4-cls-52"></path>
<path d="M3.5 0L21.5 0A3.5 3.5 0 0 1 25 3.5L25 10.5A3.5 3.5 0 0 1 21.5 14L3.5 14A3.5 3.5 0 0 1 0 10.5L0 3.5A3.5 3.5 0 0 1 3.5 0Z" transform="translate(133.85 381)" fill="#5070dd" ecmeta_series_index="0" ecmeta_data_index="0" ecmeta_ssr_type="legend" ecmeta_silent="true" class="zr4-cls-52"></path>
<text dominant-baseline="central" text-anchor="start" style="font-size:10px;font-family:Microsoft YaHei;" x="30" y="7" transform="translate(133.85 381)" fill="#54555a">Shopify</text>
<path d="M0 0l63.5 0l0 14l-63.5 0Z" transform="translate(133.85 381)" fill="none" pointer-events="visible" ecmeta_series_index="0" ecmeta_data_index="0" ecmeta_ssr_type="legend" class="zr4-cls-53"></path>
<path d="M3.5 0L21.5 0A3.5 3.5 0 0 1 25 3.5L25 10.5A3.5 3.5 0 0 1 21.5 14L3.5 14A3.5 3.5 0 0 1 0 10.5L0 3.5A3.5 3.5 0 0 1 3.5 0Z" transform="translate(205.35 381)" fill="#b6d634" ecmeta_series_index="0" ecmeta_data_index="1" ecmeta_ssr_type="legend" ecmeta_silent="true" class="zr4-cls-52"></path>
<text dominant-baseline="central" text-anchor="start" style="font-size:10px;font-family:Microsoft YaHei;" x="30" y="7" transform="translate(205.35 381)" fill="#54555a">Amazon</text>
<path d="M0 0l66.8 0l0 14l-66.8 0Z" transform="translate(205.35 381)" fill="none" pointer-events="visible" ecmeta_series_index="0" ecmeta_data_index="1" ecmeta_ssr_type="legend" class="zr4-cls-53"></path>
<path d="M3.5 0L21.5 0A3.5 3.5 0 0 1 25 3.5L25 10.5A3.5 3.5 0 0 1 21.5 14L3.5 14A3.5 3.5 0 0 1 0 10.5L0 3.5A3.5 3.5 0 0 1 3.5 0Z" transform="translate(280.15 381)" fill="#505372" ecmeta_series_index="0" ecmeta_data_index="2" ecmeta_ssr_type="legend" ecmeta_silent="true" class="zr4-cls-52"></path>
<text dominant-baseline="central" text-anchor="start" style="font-size:10px;font-family:Microsoft YaHei;" x="30" y="7" transform="translate(280.15 381)" fill="#54555a">Walmart</text>
<path d="M0 0l67.2 0l0 14l-67.2 0Z" transform="translate(280.15 381)" fill="none" pointer-events="visible" ecmeta_series_index="0" ecmeta_data_index="2" ecmeta_ssr_type="legend" class="zr4-cls-53"></path>
<path d="M3.5 0L21.5 0A3.5 3.5 0 0 1 25 3.5L25 10.5A3.5 3.5 0 0 1 21.5 14L3.5 14A3.5 3.5 0 0 1 0 10.5L0 3.5A3.5 3.5 0 0 1 3.5 0Z" transform="translate(355.35 381)" fill="#ff994d" ecmeta_series_index="0" ecmeta_data_index="3" ecmeta_ssr_type="legend" ecmeta_silent="true" class="zr4-cls-52"></path>
<text dominant-baseline="central" text-anchor="start" style="font-size:10px;font-family:Microsoft YaHei;" x="30" y="7" transform="translate(355.35 381)" fill="#54555a">Temu</text>
<path d="M0 0l55.6 0l0 14l-55.6 0Z" transform="translate(355.35 381)" fill="none" pointer-events="visible" ecmeta_series_index="0" ecmeta_data_index="3" ecmeta_ssr_type="legend" class="zr4-cls-53"></path>
<path d="M3.5 0L21.5 0A3.5 3.5 0 0 1 25 3.5L25 10.5A3.5 3.5 0 0 1 21.5 14L3.5 14A3.5 3.5 0 0 1 0 10.5L0 3.5A3.5 3.5 0 0 1 3.5 0Z" transform="translate(418.95 381)" fill="#0ca8df" ecmeta_series_index="0" ecmeta_data_index="4" ecmeta_ssr_type="legend" ecmeta_silent="true" class="zr4-cls-52"></path>
<text dominant-baseline="central" text-anchor="start" style="font-size:10px;font-family:Microsoft YaHei;" xml:space="preserve" x="30" y="7" transform="translate(418.95 381)" fill="#54555a">TikTok Shop</text>
<path d="M0 0l86.3 0l0 14l-86.3 0Z" transform="translate(418.95 381)" fill="none" pointer-events="visible" ecmeta_series_index="0" ecmeta_data_index="4" ecmeta_ssr_type="legend" class="zr4-cls-53"></path>
<path d="M3.5 0L21.5 0A3.5 3.5 0 0 1 25 3.5L25 10.5A3.5 3.5 0 0 1 21.5 14L3.5 14A3.5 3.5 0 0 1 0 10.5L0 3.5A3.5 3.5 0 0 1 3.5 0Z" transform="translate(513.25 381)" fill="#ffd10a" ecmeta_series_index="0" ecmeta_data_index="5" ecmeta_ssr_type="legend" ecmeta_silent="true" class="zr4-cls-52"></path>
<text dominant-baseline="central" text-anchor="start" style="font-size:10px;font-family:Microsoft YaHei;" x="30" y="7" transform="translate(513.25 381)" fill="#54555a">eBay</text>
<path d="M0 0l52.9 0l0 14l-52.9 0Z" transform="translate(513.25 381)" fill="none" pointer-events="visible" ecmeta_series_index="0" ecmeta_data_index="5" ecmeta_ssr_type="legend" class="zr4-cls-53"></path>
<path d="M-54 -5l108 0l0 24l-108 0Z" transform="translate(350 20)" fill="rgb(0,0,0)" fill-opacity="0" stroke="#3c3c41" stroke-width="0" class="zr4-cls-52"></path>
<text dominant-baseline="central" text-anchor="middle" style="font-size:14px;font-family:Microsoft YaHei;font-weight:bold;" y="7" transform="translate(350 20)" fill="#3c3c41">平台销售额占比</text>
<style ><![CDATA[
.zr4-cls-39:hover {
cursor:pointer;
}
.zr4-cls-40 {
animation:zr4-ani-0 1s cubic-bezier(0.65,0,0.35,1) both;
}
.zr4-cls-41:hover {
cursor:pointer;
fill:rgba(88,123,243,1);
}
.zr4-cls-42 {
animation:zr4-ani-1 1s cubic-bezier(0.65,0,0.35,1) both;
}
.zr4-cls-43:hover {
cursor:pointer;
fill:rgba(200,235,57,1);
}
.zr4-cls-44 {
animation:zr4-ani-2 1s cubic-bezier(0.65,0,0.35,1) both;
}
.zr4-cls-45:hover {
cursor:pointer;
fill:rgba(88,91,125,1);
}
.zr4-cls-46 {
animation:zr4-ani-3 1s cubic-bezier(0.65,0,0.35,1) both;
}
.zr4-cls-47:hover {
cursor:pointer;
fill:rgba(255,168,84,1);
}
.zr4-cls-48 {
animation:zr4-ani-4 1s cubic-bezier(0.65,0,0.35,1) both;
}
.zr4-cls-49:hover {
cursor:pointer;
fill:rgba(13,184,245,1);
}
.zr4-cls-50 {
animation:zr4-ani-5 1s cubic-bezier(0.65,0,0.35,1) both;
}
.zr4-cls-51:hover {
cursor:pointer;
fill:rgba(255,229,11,1);
}
.zr4-cls-52:hover {
pointer-events:none;
}
.zr4-cls-53:hover {
cursor:pointer;
fill:rgba(0,0,0,0);
}
@keyframes zr4-ani-0 {
0% {
transform:scale(0,0);
}
100% {

}
}
@keyframes zr4-ani-1 {
0% {
transform:scale(0,0);
}
100% {

}
}
@keyframes zr4-ani-2 {
0% {
transform:scale(0,0);
}
100% {

}
}
@keyframes zr4-ani-3 {
0% {
transform:scale(0,0);
}
100% {

}
}
@keyframes zr4-ani-4 {
0% {
transform:scale(0,0);
}
100% {

}
}
@keyframes zr4-ani-5 {
0% {
transform:scale(0,0);
}
100% {

}
}
]]>

</style>
</svg>